<svg id="Layer_1" data-name="Layer 1" xmlns="http://www.w3.org/2000/svg" viewBox="0 0 218 221"><defs><style>.cls-1{fill:#1b1464;}.cls-2{fill:#3fa9f5;}.cls-3{fill:#2d2a17;}.cls-4{fill:#adadad;}</style></defs><path class="cls-1" d="M12.8,7.5H35V17.6H25.9v9.6H34v9.6H25.9V58H12.8V7.5Z"/><path class="cls-1" d="M32,60.1l7.5,50.5H26l-.7-9.1H20.6l-.8,9.1H6.2l6.7-50.5ZM25,92.6c-.7-5.7-1.3-12.8-2-21.2-1.3,9.7-2.2,16.7-2.5,21.2Z"/><path class="cls-1" d="M36.8,128H24.6v-3.7a7.08,7.08,0,0,0-.5-3.3,1.65,1.65,0,0,0-1.6-.7,1.9,1.9,0,0,0-1.8,1,5.46,5.46,0,0,0-.6,2.9,7.55,7.55,0,0,0,.7,3.8c.4.9,1.7,1.9,3.7,3.1,5.8,3.5,9.5,6.3,11,8.5s2.3,5.8,2.3,10.8c0,3.6-.4,6.2-1.3,8s-2.5,3.1-4.9,4.3a18.55,18.55,0,0,1-8.4,1.7,19.29,19.29,0,0,1-9-2,9.66,9.66,0,0,1-4.9-5.1,25.46,25.46,0,0,1-1.2-8.8v-3.3H20.3v6.1a8.41,8.41,0,0,0,.5,3.6,2.07,2.07,0,0,0,1.8.8,2.06,2.06,0,0,0,1.9-1,6.29,6.29,0,0,0,.6-3.1c0-3-.4-4.9-1.2-5.8a44.53,44.53,0,0,0-6.1-4.6,64.13,64.13,0,0,1-6.5-4.7,10.35,10.35,0,0,1-2.6-4.1,18,18,0,0,1-1-6.6c0-3.9.5-6.7,1.5-8.5a10,10,0,0,1,4.8-4.2,19.36,19.36,0,0,1,8-1.5,20.76,20.76,0,0,1,8.7,1.7,9.21,9.21,0,0,1,4.8,4.2c.8,1.7,1.2,4.5,1.2,8.5l.1,2Z"/><path class="cls-1" d="M37.2,165.4v10.1H29.4v40.4H16.3V175.5H8.5V165.4Z"/><path class="cls-2" d="M47.2,30.6h4.9V65.3H47.2Zm2.3,0H69.4v4.6H49.5Zm0,15.2H66.8v4.6H49.5Zm0,14.9H69.4v4.6H49.5Z"/><path class="cls-2" d="M47.2,76.4h4.4l16.9,26.8-.6.6V76.4h4.8V111H68.2L51.3,84.6l.6-.6v27H47.1l.1-34.6Z"/><path class="cls-2" d="M47.2,122.2h4.9v34.7H47.2Zm3.2,30.1h7.8a8.25,8.25,0,0,0,5.9-2,7.31,7.31,0,0,0,2.1-5.6V134.5a7.31,7.31,0,0,0-2.1-5.6,8.42,8.42,0,0,0-5.9-2H50.4v-4.6h7.7a15.22,15.22,0,0,1,7.1,1.5,10.2,10.2,0,0,1,4.5,4.2,14.1,14.1,0,0,1,1.5,6.7v9.8a13.82,13.82,0,0,1-1.5,6.7,9.2,9.2,0,0,1-4.5,4.2,15.8,15.8,0,0,1-7.1,1.5H50.4Z"/><path class="cls-2" d="M47.2,168h4.9v34.7H47.2Zm2.5,16.6H60.8a5.3,5.3,0,0,0,2.8-.7,4.63,4.63,0,0,0,1.8-2.1,7.45,7.45,0,0,0,.7-3.1,6.17,6.17,0,0,0-.7-3.1,5.31,5.31,0,0,0-1.8-2.1,5.12,5.12,0,0,0-2.8-.8H49.7V168H60.6a10.92,10.92,0,0,1,5.5,1.3,9.4,9.4,0,0,1,3.7,3.7,12.71,12.71,0,0,1,0,11.2,9.4,9.4,0,0,1-3.7,3.7,10.92,10.92,0,0,1-5.5,1.3H49.7Z"/><path class="cls-2" d="M82.1,201.5a11,11,0,0,1-4.3-4.5,14.67,14.67,0,0,1-1.5-6.7v-9.8a14.38,14.38,0,0,1,1.5-6.7,11,11,0,0,1,4.3-4.5,12.18,12.18,0,0,1,6.4-1.6,12.42,12.42,0,0,1,6.4,1.6,11,11,0,0,1,4.3,4.5,14.67,14.67,0,0,1,1.5,6.7v9.8a14.38,14.38,0,0,1-1.5,6.7,11,11,0,0,1-4.3,4.5,12.18,12.18,0,0,1-6.4,1.6A13.49,13.49,0,0,1,82.1,201.5Zm10.2-4.2a6.52,6.52,0,0,0,2.5-2.7,8.85,8.85,0,0,0,.9-4.1V180.3a8.85,8.85,0,0,0-.9-4.1,6,6,0,0,0-2.5-2.7,7.66,7.66,0,0,0-3.8-1,6.74,6.74,0,0,0-3.8,1,7.19,7.19,0,0,0-2.5,2.7,9.15,9.15,0,0,0-.9,4.1v10.2a8.85,8.85,0,0,0,.9,4.1,6,6,0,0,0,2.5,2.7,7.72,7.72,0,0,0,7.6,0Z"/><path class="cls-2" d="M113,202.7h-4.9V168H113Z"/><path class="cls-2" d="M121.5,168h4.4l16.9,26.8-.6.6V168H147v34.6h-4.5l-16.9-26.4.6-.6v27h-4.8l.1-34.6Z"/><path class="cls-2" d="M152.8,168h24.5v4.6H152.8Zm9.8,2.9h4.9v31.8h-4.9Z"/><path class="cls-2" d="M186.8,202.6a18.84,18.84,0,0,1-4.2-1.4,14.14,14.14,0,0,1-3.6-2.4l3-3.7a15,15,0,0,0,4.4,2.6,14.56,14.56,0,0,0,5.2.9,10.34,10.34,0,0,0,5.8-1.4,4.36,4.36,0,0,0,2.1-3.9h0a4.37,4.37,0,0,0-.9-2.9,6,6,0,0,0-2.4-1.6,16.35,16.35,0,0,0-3.8-.9H192l-.4-.1a41,41,0,0,1-5.7-1.3,7.61,7.61,0,0,1-3.7-2.7,9.22,9.22,0,0,1-1.5-5.7h0a10.69,10.69,0,0,1,1.4-5.5,9.68,9.68,0,0,1,4.2-3.5,16.55,16.55,0,0,1,6.6-1.2,15.53,15.53,0,0,1,3.7.4,25.33,25.33,0,0,1,3.6,1.2,16.83,16.83,0,0,1,3.4,2l-2.8,3.9a15.4,15.4,0,0,0-3.9-2.2,10.72,10.72,0,0,0-3.9-.7,9.49,9.49,0,0,0-5.5,1.4,4.67,4.67,0,0,0-2,4h0a3.71,3.71,0,0,0,1,2.8,5.79,5.79,0,0,0,2.5,1.5,33,33,0,0,0,4.2,1h1a28.34,28.34,0,0,1,5.3,1.5,8,8,0,0,1,3.5,2.8,9.37,9.37,0,0,1,1.4,5.4h0a9.51,9.51,0,0,1-1.5,5.4,9.77,9.77,0,0,1-4.3,3.4,17.42,17.42,0,0,1-6.9,1.2A19.28,19.28,0,0,1,186.8,202.6Z"/><path class="cls-3" d="M194.73,43.8a9.16,9.16,0,0,0-6.57,6.29,11.94,11.94,0,0,0,0,5,9.34,9.34,0,0,0,4.59,5.55A9.13,9.13,0,0,0,203.39,59a8.42,8.42,0,0,0,2.52-6.33,8.39,8.39,0,0,0-2.46-6.25,9.22,9.22,0,0,0-8.72-2.57Z"/><path class="cls-3" d="M160,48.45c-.76.26-2.26,1.68-10.08,9.45-6.55,6.53-9.29,9.39-9.61,10a7.53,7.53,0,0,0-.24,4.79,6.42,6.42,0,0,0,3.14,3.45,5.49,5.49,0,0,0,2.56.46c2.6,0,2.64,0,10.32-7.69,3.75-3.75,6.89-6.81,7-6.81s2.2,1.46,4.67,3.24l4.51,3.22L142.86,98.06c-27.1,27.14-29.46,29.54-29.76,30.45a8,8,0,0,0,0,4.39,6.6,6.6,0,0,0,3.12,3.37,5.87,5.87,0,0,0,2.46.48c2.82,0,1.4,1.26,21.27-18.61l17.89-17.85,4.71,4.71,4.71,4.71-8.89,8.91c-9.81,9.85-9.53,9.49-9.53,12.12a5.7,5.7,0,0,0,1.52,4.09,5.47,5.47,0,0,0,4.49,1.9c2.72,0,2.18.44,15-12.36s12.08-12,12.08-14.66.12-2.42-8-10.62l-7.39-7.41L171.18,87l4.71-4.71v2.32a10.91,10.91,0,0,0,.32,3.24,6.6,6.6,0,0,0,3.12,3.37l1.06.48h27.24l1.06-.48a6.52,6.52,0,0,0,3.12-3.37,8,8,0,0,0,0-4.33,6.6,6.6,0,0,0-3.12-3.37l-1.06-.48-9.85-.06-9.87-.06V73c0-7.67,0-7.91-1.68-9.53-1.24-1.22-20.39-14.48-21.59-15A8.65,8.65,0,0,0,160,48.45Z"/><path class="cls-4" d="M133.6,64.8H100.3a4.69,4.69,0,0,1-4.7-4.7v-.3a4.69,4.69,0,0,1,4.7-4.7h33.3a4.69,4.69,0,0,1,4.7,4.7v.3A4.69,4.69,0,0,1,133.6,64.8Z"/><path class="cls-4" d="M119.3,76.9H86a4.69,4.69,0,0,1-4.7-4.7v-.3A4.69,4.69,0,0,1,86,67.2h33.3a4.69,4.69,0,0,1,4.7,4.7v.3A4.69,4.69,0,0,1,119.3,76.9Z"/><path class="cls-4" d="M131.3,89H98a4.69,4.69,0,0,1-4.7-4.7V84A4.69,4.69,0,0,1,98,79.3h33.3A4.69,4.69,0,0,1,136,84v.3A4.69,4.69,0,0,1,131.3,89Z"/></svg>